<mxfile host="65bd71144e">
    <diagram name="Page-1" id="Y0r2ZP2E7B2q2Z5D0T4H">
        <mxGraphModel dx="576" dy="427" grid="1" gridSize="10" guides="1" tooltips="1" connect="1" arrows="1" fold="1" page="1" pageScale="1" pageWidth="827" pageHeight="1169" math="0" shadow="0">
            <root>
                <mxfile host="app.diagrams.net" id="0">
                    <diagram name="Page-1" id="Y0r2ZP2E7B2q2Z5D0T4H">
                        <mxGraphModel dx="1048" dy="660" grid="1" gridSize="10" guides="1" tooltips="1" connect="1" arrows="1" fold="1" page="1" pageScale="1" pageWidth="827" pageHeight="1169" math="0" shadow="0">
                            <root>
                                <mxCell id="0" parent="1"/>
                                <mxCell id="1" value="Input" style="shape=rectangle;whiteSpace=wrap;html=1;" vertex="1" parent="0">
                                    <mxGeometry x="260" y="30" width="80" height="30" as="geometry"/>
                                </mxCell>
                                <mxCell id="2" value="Conv [64, 3, 2]" style="shape=rectangle;whiteSpace=wrap;html=1;" vertex="1" parent="0">
                                    <mxGeometry x="210" y="80" width="120" height="30" as="geometry"/>
                                </mxCell>
                                <mxCell id="3" value="Conv [128, 3, 2]" style="shape=rectangle;whiteSpace=wrap;html=1;" vertex="1" parent="0">
                                    <mxGeometry x="210" y="130" width="120" height="30" as="geometry"/>
                                </mxCell>
                                <mxCell id="4" value="C2f [128]" style="shape=rectangle;whiteSpace=wrap;html=1;" vertex="1" parent="0">
                                    <mxGeometry x="210" y="180" width="120" height="30" as="geometry"/>
                                </mxCell>
                                <mxCell id="5" value="Conv [256, 3, 2]" style="shape=rectangle;whiteSpace=wrap;html=1;" vertex="1" parent="0">
                                    <mxGeometry x="210" y="230" width="120" height="30" as="geometry"/>
                                </mxCell>
                                <mxCell id="6" value="C2f [256]" style="shape=rectangle;whiteSpace=wrap;html=1;" vertex="1" parent="0">
                                    <mxGeometry x="210" y="280" width="120" height="30" as="geometry"/>
                                </mxCell>
                                <mxCell id="7" value="Conv [512, 3, 2]" style="shape=rectangle;whiteSpace=wrap;html=1;" vertex="1" parent="0">
                                    <mxGeometry x="210" y="330" width="120" height="30" as="geometry"/>
                                </mxCell>
                                <mxCell id="8" value="C2f [512]" style="shape=rectangle;whiteSpace=wrap;html=1;" vertex="1" parent="0">
                                    <mxGeometry x="210" y="380" width="120" height="30" as="geometry"/>
                                </mxCell>
                                <mxCell id="9" value="SwinBlock [384]" style="shape=rectangle;whiteSpace=wrap;html=1;" vertex="1" parent="0">
                                    <mxGeometry x="210" y="430" width="120" height="30" as="geometry"/>
                                </mxCell>
                                <mxCell id="10" value="Conv [1024, 3, 2]" style="shape=rectangle;whiteSpace=wrap;html=1;" vertex="1" parent="0">
                                    <mxGeometry x="210" y="480" width="120" height="30" as="geometry"/>
                                </mxCell>
                                <mxCell id="11" value="C2f [1024]" style="shape=rectangle;whiteSpace=wrap;html=1;" vertex="1" parent="0">
                                    <mxGeometry x="210" y="530" width="120" height="30" as="geometry"/>
                                </mxCell>
                                <mxCell id="12" value="Detect [nc]" style="shape=rectangle;whiteSpace=wrap;html=1;" vertex="1" parent="0">
                                    <mxGeometry x="210" y="580" width="120" height="30" as="geometry"/>
                                </mxCell>
                                <mxCell id="13" style="edgeStyle=orthogonalEdgeStyle;rounded=0;orthogonalLoop=1;exitX=0.5;exitY=0;entryX=0.5;entryY=0;exitPerimeter=1;entryPerimeter=1;" edge="1" parent="0" source="1" target="2">
                                    <mxGeometry relative="1" as="geometry"/>
                                </mxCell>
                                <mxCell id="14" style="edgeStyle=orthogonalEdgeStyle;rounded=0;orthogonalLoop=1;exitX=0.5;exitY=0;entryX=0.5;entryY=0;exitPerimeter=1;entryPerimeter=1;" edge="1" parent="0" source="2" target="3">
                                    <mxGeometry relative="1" as="geometry"/>
                                </mxCell>
                                <mxCell id="15" style="edgeStyle=orthogonalEdgeStyle;rounded=0;orthogonalLoop=1;exitX=0.5;exitY=0;entryX=0.5;entryY=0;exitPerimeter=1;entryPerimeter=1;" edge="1" parent="0" source="3" target="4">
                                    <mxGeometry relative="1" as="geometry"/>
                                </mxCell>
                                <mxCell id="16" style="edgeStyle=orthogonalEdgeStyle;rounded=0;orthogonalLoop=1;exitX=0.5;exitY=0;entryX=0.5;entryY=0;exitPerimeter=1;entryPerimeter=1;" edge="1" parent="0" source="4" target="5">
                                    <mxGeometry relative="1" as="geometry"/>
                                </mxCell>
                                <mxCell id="17" style="edgeStyle=orthogonalEdgeStyle;rounded=0;orthogonalLoop=1;exitX=0.5;exitY=0;entryX=0.5;entryY=0;exitPerimeter=1;entryPerimeter=1;" edge="1" parent="0" source="5" target="6">
                                    <mxGeometry relative="1" as="geometry"/>
                                </mxCell>
                                <mxCell id="18" style="edgeStyle=orthogonalEdgeStyle;rounded=0;orthogonalLoop=1;exitX=0.5;exitY=0;entryX=0.5;entryY=0;exitPerimeter=1;entryPerimeter=1;" edge="1" parent="0" source="6" target="7">
                                    <mxGeometry relative="1" as="geometry"/>
                                </mxCell>
                                <mxCell id="19" style="edgeStyle=orthogonalEdgeStyle;rounded=0;orthogonalLoop=1;exitX=0.5;exitY=0;entryX=0.5;entryY=0;exitPerimeter=1;entryPerimeter=1;" edge="1" parent="0" source="7" target="8">
                                    <mxGeometry relative="1" as="geometry"/>
                                </mxCell>
                                <mxCell id="20" style="edgeStyle=orthogonalEdgeStyle;rounded=0;orthogonalLoop=1;exitX=0.5;exitY=0;entryX=0.5;entryY=0;exitPerimeter=1;entryPerimeter=1;" edge="1" parent="0" source="8" target="9">
                                    <mxGeometry relative="1" as="geometry"/>
                                </mxCell>
                                <mxCell id="21" style="edgeStyle=orthogonalEdgeStyle;rounded=0;orthogonalLoop=1;exitX=0.5;exitY=0;entryX=0.5;entryY=0;exitPerimeter=1;entryPerimeter=1;" edge="1" parent="0" source="9" target="10">
                                    <mxGeometry relative="1" as="geometry"/>
                                </mxCell>
                                <mxCell id="22" style="edgeStyle=orthogonalEdgeStyle;rounded=0;orthogonalLoop=1;exitX=0.5;exitY=0;entryX=0.5;entryY=0;exitPerimeter=1;entryPerimeter=1;" edge="1" parent="0" source="10" target="11">
                                    <mxGeometry relative="1" as="geometry"/>
                                </mxCell>
                                <mxCell id="23" style="edgeStyle=orthogonalEdgeStyle;rounded=0;orthogonalLoop=1;exitX=0.5;exitY=0;entryX=0.5;entryY=0;exitPerimeter=1;entryPerimeter=1;" edge="1" parent="0" source="11" target="12">
                                    <mxGeometry relative="1" as="geometry"/>
                                </mxCell>
                            </root>
                        </mxGraphModel>
                    </diagram>
                    <mxCell/>
                </mxfile>
            </root>
        </mxGraphModel>
    </diagram>
</mxfile>